<svg width="28" height="28" viewBox="0 0 28 28" fill="none" xmlns="http://www.w3.org/2000/svg">
<g filter="url(#filter0_d)">
<path d="M21.5 0H6.5C5.12083 0 4 1.12083 4 2.5V17.5C4 18.8783 5.12083 20 6.5 20H21.5C22.8783 20 24 18.8783 24 17.5V2.5C24 1.12083 22.8783 0 21.5 0Z" fill="#3B5999"/>
<path d="M17.75 10V7.5C17.75 6.81 18.31 6.875 19 6.875H20.25V3.75H17.75C15.6783 3.75 14 5.42833 14 7.5V10H11.5V13.125H14V20H17.75V13.125H19.625L20.875 10H17.75Z" fill="white"/>
</g>
<defs>
<filter id="filter0_d" x="0" y="0" width="28" height="28" filterUnits="userSpaceOnUse" color-interpolation-filters="sRGB">
<feFlood flood-opacity="0" result="BackgroundImageFix"/>
<feColorMatrix in="SourceAlpha" type="matrix" values="0 0 0 0 0 0 0 0 0 0 0 0 0 0 0 0 0 0 127 0" result="hardAlpha"/>
<feOffset dy="4"/>
<feGaussianBlur stdDeviation="2"/>
<feComposite in2="hardAlpha" operator="out"/>
<feColorMatrix type="matrix" values="0 0 0 0 0 0 0 0 0 0 0 0 0 0 0 0 0 0 0.25 0"/>
<feBlend mode="normal" in2="BackgroundImageFix" result="effect1_dropShadow"/>
<feBlend mode="normal" in="SourceGraphic" in2="effect1_dropShadow" result="shape"/>
</filter>
</defs>
</svg>
