<svg width="28" height="28" viewBox="0 0 28 28" fill="none" xmlns="http://www.w3.org/2000/svg">
<g filter="url(#filter0_d)">
<path d="M14 20C19.5228 20 24 15.5228 24 10C24 4.47715 19.5228 0 14 0C8.47715 0 4 4.47715 4 10C4 15.5228 8.47715 20 14 20Z" fill="#273B7A"/>
<path d="M23.7748 12.1154L17.6607 6.00122L12.5633 6.4081L9.95947 8.78505L10.2936 13.9556L16.0828 19.7817C19.9229 18.968 22.9485 15.9508 23.7748 12.1154Z" fill="#121149"/>
<path d="M14.2183 9.08051V10.9967H17.2151C16.7901 12.3684 15.5117 13.3648 14.0003 13.3648C12.1418 13.3648 10.6351 11.8582 10.6351 9.99961C10.6351 8.14117 12.1417 6.63449 14.0002 6.63449C14.8687 6.63449 15.6578 6.96641 16.2549 7.5066L17.661 6.00121C16.6964 5.11766 15.4114 4.57812 14.0002 4.57812C11.006 4.57812 8.57861 7.00539 8.57861 9.99969C8.57861 12.994 11.006 15.4212 14.0002 15.4212C16.9945 15.4212 19.4218 12.9939 19.4218 9.99969C19.4218 9.68602 19.3928 9.37941 19.3413 9.08051H14.2183Z" fill="#4285F4"/>
<path d="M14 6.63457C14.8686 6.63457 15.6577 6.96648 16.2547 7.50668L17.6608 6.00129C16.6963 5.11766 15.4113 4.57812 14 4.57812C11.9236 4.57812 10.1207 5.74594 9.20996 7.46008L10.8645 8.78512C11.3521 7.52769 12.5704 6.63457 14 6.63457Z" fill="#EA4335"/>
<path d="M10.6351 10.0005C10.6351 9.57168 10.7184 9.16313 10.8647 8.78598L9.21014 7.46094C8.8076 8.21863 8.57861 9.0827 8.57861 10.0005C8.57861 10.9226 8.80951 11.7906 9.21553 12.5508L10.8603 11.203C10.717 10.829 10.6351 10.4248 10.6351 10.0005Z" fill="#FBBC05"/>
<path d="M15.8714 12.7955C15.3362 13.1546 14.6936 13.3659 14.0006 13.3659C12.5663 13.3659 11.3449 12.467 10.8605 11.2031L9.21582 12.5509C10.1284 14.2593 11.9284 15.4223 14.0005 15.4223C15.3462 15.4223 16.5764 14.9309 17.5242 14.1192L15.8714 12.7955Z" fill="#34A853"/>
<path d="M19.4217 9.99999C19.4217 9.68632 19.3928 9.37972 19.3412 9.08081H14.2183V10.997H17.215C16.9849 11.7398 16.5031 12.3707 15.871 12.7948L17.5238 14.1185C18.685 13.1241 19.4217 11.6485 19.4217 9.99999Z" fill="#4285F4"/>
</g>
<defs>
<filter id="filter0_d" x="0" y="0" width="28" height="28" filterUnits="userSpaceOnUse" color-interpolation-filters="sRGB">
<feFlood flood-opacity="0" result="BackgroundImageFix"/>
<feColorMatrix in="SourceAlpha" type="matrix" values="0 0 0 0 0 0 0 0 0 0 0 0 0 0 0 0 0 0 127 0" result="hardAlpha"/>
<feOffset dy="4"/>
<feGaussianBlur stdDeviation="2"/>
<feComposite in2="hardAlpha" operator="out"/>
<feColorMatrix type="matrix" values="0 0 0 0 0 0 0 0 0 0 0 0 0 0 0 0 0 0 0.25 0"/>
<feBlend mode="normal" in2="BackgroundImageFix" result="effect1_dropShadow"/>
<feBlend mode="normal" in="SourceGraphic" in2="effect1_dropShadow" result="shape"/>
</filter>
</defs>
</svg>
