<svg width="28" height="28" viewBox="0 0 28 28" fill="none" xmlns="http://www.w3.org/2000/svg">
<g filter="url(#filter0_d)">
<path d="M23.6576 3.57713C23.4756 1.87157 22.1285 0.524271 20.4227 0.342394C16.1451 -0.114131 11.8549 -0.114131 7.57742 0.342394C5.87164 0.524424 4.52444 1.87157 4.34241 3.57713C3.88586 7.85445 3.88586 12.1446 4.34241 16.4219C4.52444 18.1276 5.87164 19.4748 7.57727 19.6568C11.8548 20.1133 16.1451 20.1133 20.4227 19.6568C22.1285 19.4748 23.4756 18.1276 23.6576 16.4219C24.1141 12.1446 24.1141 7.85461 23.6576 3.57713Z" fill="url(#paint0_radial)"/>
<path d="M22.5699 4.30046C22.4085 2.787 21.2131 1.59152 19.6994 1.42993C15.9037 1.02498 12.0966 1.02498 8.30083 1.42993C6.78731 1.59152 5.59178 2.787 5.43019 4.30046C5.02522 8.09608 5.02522 11.903 5.43019 15.6985C5.59178 17.2121 6.78731 18.4076 8.30083 18.569C12.0966 18.9741 15.9037 18.9741 19.6993 18.569C21.213 18.4076 22.4085 17.2121 22.5699 15.6985C22.9751 11.903 22.9751 8.09608 22.5699 4.30046Z" fill="url(#paint1_linear)"/>
<path d="M4.29932 16.0066C4.31305 16.1448 4.32724 16.2831 4.34204 16.4213C4.52408 18.1269 5.87128 19.474 7.57706 19.656C11.8546 20.1126 16.1449 20.1126 20.4224 19.656C22.1281 19.474 23.4752 18.1269 23.6572 16.4213C23.672 16.2831 23.6862 16.1448 23.7001 16.0066H4.29932Z" fill="url(#paint2_linear)"/>
<path d="M23.6575 16.4226C23.9029 14.1243 24.0161 11.8223 23.9978 9.52059L19.4262 4.94924C18.8551 4.29725 18.0209 3.89032 17.0407 3.85507C15.0248 3.78244 13.0026 3.78611 10.9865 3.85538C9.31195 3.91305 8.14099 5.0385 7.8407 6.69264C7.78775 6.98468 7.75601 7.28053 7.71436 7.57471V12.4241C7.7374 12.5812 7.77127 12.7376 7.7818 12.8957C7.84894 13.9018 8.26245 14.7636 8.92453 15.3466L13.5766 19.9984C15.8597 20.0144 18.1428 19.9009 20.4226 19.6575C22.1284 19.4755 23.4755 18.1283 23.6575 16.4226Z" fill="url(#paint3_linear)"/>
<path d="M23.6574 16.4209C23.4756 18.1263 22.1281 19.4738 20.4226 19.6557C18.1431 19.8989 15.8594 20.0126 13.5767 19.9965L8.93164 15.3516C9.47012 15.823 10.172 16.11 10.9865 16.1406C13.0022 16.2163 15.0249 16.2143 17.0406 16.1417C18.8637 16.0758 20.183 14.7265 20.2399 12.9035C20.3007 10.9678 20.3007 9.02712 20.2399 7.09147C20.214 6.25044 19.9187 5.51041 19.4292 4.95044L23.9979 9.51889C24.0159 11.8203 23.9026 14.1226 23.6574 16.4209Z" fill="url(#paint4_linear)"/>
<path d="M16.3602 7.83458C15.7746 7.19694 14.9343 6.79688 14.0003 6.79688C12.2312 6.79688 10.7969 8.23114 10.7969 10.0002C10.7969 10.9341 11.197 11.7744 11.8346 12.36L19.2463 19.7714C19.6386 19.7372 20.0309 19.6992 20.4229 19.6574C22.1287 19.4754 23.4759 18.1282 23.6579 16.4225C23.6997 16.0305 23.7377 15.6382 23.7719 15.2459L16.3602 7.83458Z" fill="url(#paint5_linear)"/>
<path d="M23.9613 12.1537L17.9964 6.18914C17.8572 6.0065 17.6379 5.88794 17.3906 5.88794C16.9698 5.88794 16.6284 6.22911 16.6284 6.65009C16.6284 6.89742 16.747 7.11668 16.9296 7.25584L23.8547 14.1808C23.9017 13.5053 23.9372 12.8295 23.9613 12.1537Z" fill="url(#paint6_linear)"/>
<path d="M7.71436 7.57471C7.75601 7.28053 7.78775 6.98468 7.8407 6.69264C8.14084 5.0385 9.31195 3.91305 10.9865 3.85538C13.0026 3.78611 15.0248 3.78244 17.0407 3.85507C18.8632 3.92068 20.1831 5.27012 20.24 7.09316C20.3006 9.02897 20.3006 10.9695 20.24 12.9053C20.1831 14.7284 18.8636 16.0776 17.0408 16.1434C15.025 16.2162 13.0023 16.218 10.9866 16.1423C9.16379 16.0738 7.90372 14.7213 7.7818 12.8955C7.77127 12.7376 7.7374 12.5811 7.71436 12.4239C7.71436 10.8075 7.71436 9.19101 7.71436 7.57471ZM14.0016 15.063C14.9241 15.063 15.8476 15.0906 16.7689 15.0566C18.2135 15.003 19.102 14.1409 19.1357 12.6978C19.1775 10.8996 19.1775 9.09901 19.1357 7.30068C19.102 5.85786 18.2129 4.97563 16.7689 4.94496C14.9362 4.90621 13.1015 4.90651 11.2687 4.94496C9.83578 4.97502 8.94467 5.8394 8.90576 7.26634C8.85632 9.08726 8.85632 10.9114 8.90576 12.7323C8.94467 14.1591 9.83578 15.0035 11.2689 15.0566C12.1786 15.0904 13.0906 15.063 14.0016 15.063Z" fill="url(#paint7_linear)"/>
<path d="M7.71436 7.57471C7.75601 7.28053 7.78775 6.98468 7.8407 6.69264C8.14084 5.0385 9.31195 3.91305 10.9865 3.85538C13.0026 3.78611 15.0248 3.78244 17.0407 3.85507C18.8632 3.92068 20.1831 5.27012 20.24 7.09316C20.3006 9.02897 20.3006 10.9695 20.24 12.9053C20.1831 14.7284 18.8636 16.0776 17.0408 16.1434C15.025 16.2162 13.0023 16.218 10.9866 16.1423C9.16379 16.0738 7.90372 14.7213 7.7818 12.8955C7.77127 12.7376 7.7374 12.5811 7.71436 12.4239C7.71436 10.8075 7.71436 9.19101 7.71436 7.57471ZM14.0016 15.063C14.9241 15.063 15.8476 15.0906 16.7689 15.0566C18.2135 15.003 19.102 14.1409 19.1357 12.6978C19.1775 10.8996 19.1775 9.09901 19.1357 7.30068C19.102 5.85786 18.2129 4.97563 16.7689 4.94496C14.9362 4.90621 13.1015 4.90651 11.2687 4.94496C9.83578 4.97502 8.94467 5.8394 8.90576 7.26634C8.85632 9.08726 8.85632 10.9114 8.90576 12.7323C8.94467 14.1591 9.83578 15.0035 11.2689 15.0566C12.1786 15.0904 13.0906 15.063 14.0016 15.063Z" fill="white"/>
<path d="M14.0003 6.79614C12.2312 6.79614 10.7969 8.23026 10.7969 9.99929C10.7969 11.7685 12.2312 13.2026 14.0003 13.2026C15.7696 13.2026 17.2037 11.7685 17.2037 9.99929C17.2037 8.23026 15.7696 6.79614 14.0003 6.79614ZM14.0003 12.0997C12.8402 12.0997 11.8998 11.1594 11.8998 9.99929C11.8998 8.83921 12.8402 7.89885 14.0003 7.89885C15.1604 7.89885 16.1008 8.83921 16.1008 9.99929C16.1008 11.1594 15.1604 12.0997 14.0003 12.0997Z" fill="white"/>
<path d="M18.1526 6.64935C18.1526 7.07017 17.8114 7.41135 17.3906 7.41135C16.9698 7.41135 16.6284 7.07017 16.6284 6.64935C16.6284 6.22838 16.9698 5.88721 17.3906 5.88721C17.8114 5.88721 18.1526 6.22838 18.1526 6.64935Z" fill="white"/>
</g>
<defs>
<filter id="filter0_d" x="0" y="0" width="28" height="27.9999" filterUnits="userSpaceOnUse" color-interpolation-filters="sRGB">
<feFlood flood-opacity="0" result="BackgroundImageFix"/>
<feColorMatrix in="SourceAlpha" type="matrix" values="0 0 0 0 0 0 0 0 0 0 0 0 0 0 0 0 0 0 127 0" result="hardAlpha"/>
<feOffset dy="4"/>
<feGaussianBlur stdDeviation="2"/>
<feComposite in2="hardAlpha" operator="out"/>
<feColorMatrix type="matrix" values="0 0 0 0 0 0 0 0 0 0 0 0 0 0 0 0 0 0 0.25 0"/>
<feBlend mode="normal" in2="BackgroundImageFix" result="effect1_dropShadow"/>
<feBlend mode="normal" in="SourceGraphic" in2="effect1_dropShadow" result="shape"/>
</filter>
<radialGradient id="paint0_radial" cx="0" cy="0" r="1" gradientUnits="userSpaceOnUse" gradientTransform="translate(8.09989 17.4777) scale(22.0565 22.0556)">
<stop stop-color="#FAE100"/>
<stop offset="0.0544" stop-color="#FADC04"/>
<stop offset="0.1167" stop-color="#FBCE0E"/>
<stop offset="0.1829" stop-color="#FCB720"/>
<stop offset="0.2514" stop-color="#FE9838"/>
<stop offset="0.3054" stop-color="#FF7950"/>
<stop offset="0.4922" stop-color="#FF1C74"/>
<stop offset="1" stop-color="#6C1CD1"/>
</radialGradient>
<linearGradient id="paint1_linear" x1="11.6709" y1="8.68942" x2="-22.2108" y2="-10.3698" gradientUnits="userSpaceOnUse">
<stop stop-color="#A1B5D8" stop-opacity="0"/>
<stop offset="0.3094" stop-color="#90A2BD" stop-opacity="0.309804"/>
<stop offset="0.7554" stop-color="#7C8B9C" stop-opacity="0.756863"/>
<stop offset="1" stop-color="#748290"/>
</linearGradient>
<linearGradient id="paint2_linear" x1="13.9996" y1="17.6535" x2="13.9996" y2="20.7708" gradientUnits="userSpaceOnUse">
<stop stop-color="#FAE100" stop-opacity="0"/>
<stop offset="0.3068" stop-color="#FCA800" stop-opacity="0.305882"/>
<stop offset="0.6275" stop-color="#FE7300" stop-opacity="0.627451"/>
<stop offset="0.8685" stop-color="#FF5200" stop-opacity="0.866667"/>
<stop offset="1" stop-color="#FF4500"/>
</linearGradient>
<linearGradient id="paint3_linear" x1="12.8621" y1="8.83426" x2="7.91263" y2="3.88458" gradientUnits="userSpaceOnUse">
<stop stop-color="#833AB4" stop-opacity="0"/>
<stop offset="1" stop-color="#833AB4"/>
</linearGradient>
<linearGradient id="paint4_linear" x1="17.7069" y1="18.2906" x2="15.2366" y2="6.64455" gradientUnits="userSpaceOnUse">
<stop stop-color="#833AB4" stop-opacity="0"/>
<stop offset="1" stop-color="#833AB4"/>
</linearGradient>
<linearGradient id="paint5_linear" x1="18.6474" y1="14.6471" x2="8.72496" y2="4.72424" gradientUnits="userSpaceOnUse">
<stop stop-color="#833AB4" stop-opacity="0"/>
<stop offset="1" stop-color="#833AB4"/>
</linearGradient>
<linearGradient id="paint6_linear" x1="19.3832" y1="8.64255" x2="16.102" y2="5.36127" gradientUnits="userSpaceOnUse">
<stop stop-color="#833AB4" stop-opacity="0"/>
<stop offset="1" stop-color="#833AB4"/>
</linearGradient>
<linearGradient id="paint7_linear" x1="17.9709" y1="6.05708" x2="9.8808" y2="14.1475" gradientUnits="userSpaceOnUse">
<stop stop-color="#833AB4"/>
<stop offset="0.0922" stop-color="#9C3495"/>
<stop offset="0.2927" stop-color="#DC2546"/>
<stop offset="0.392" stop-color="#FD1D1D"/>
<stop offset="0.5589" stop-color="#FC6831"/>
<stop offset="0.6887" stop-color="#FC9B40"/>
<stop offset="0.7521" stop-color="#FCAF45"/>
<stop offset="0.7806" stop-color="#FDB750"/>
<stop offset="0.8656" stop-color="#FECB6A"/>
<stop offset="0.9415" stop-color="#FFD87A"/>
<stop offset="1" stop-color="#FFDC80"/>
</linearGradient>
</defs>
</svg>
