<svg width="28" height="28" viewBox="0 0 28 28" fill="none" xmlns="http://www.w3.org/2000/svg">
<g filter="url(#filter0_d)">
<path d="M20.4227 19.6576C16.1452 20.1141 11.8548 20.1141 7.57727 19.6576C5.87164 19.4756 4.52444 18.1284 4.34241 16.4226C3.88586 12.1451 3.88586 7.85477 4.34241 3.57727C4.52444 1.87164 5.87164 0.524445 7.57727 0.342407C11.8548 -0.114136 16.1451 -0.114136 20.4226 0.342407C22.1284 0.524445 23.4756 1.87164 23.6576 3.57727C24.1141 7.85477 24.1141 12.1451 23.6576 16.4226C23.4756 18.1284 22.1285 19.4756 20.4227 19.6576Z" fill="url(#paint0_linear)"/>
<path d="M22.5699 4.30058C22.4085 2.78706 21.2131 1.59154 19.6994 1.42995C15.9037 1.02498 12.0966 1.02498 8.30083 1.42995C6.78731 1.59154 5.59178 2.78706 5.43019 4.30058C5.02522 8.09636 5.02522 11.9034 5.43019 15.6991C5.59178 17.2127 6.78731 18.4082 8.30083 18.5697C12.0966 18.9748 15.9037 18.9748 19.6993 18.5697C21.213 18.4082 22.4085 17.2127 22.5699 15.6991C22.9751 11.9034 22.9751 8.09636 22.5699 4.30058Z" fill="url(#paint1_linear)"/>
<path d="M4.2998 16.0081C4.31354 16.1463 4.32773 16.2845 4.34253 16.4228C4.52457 18.1284 5.87177 19.4756 7.57755 19.6577C11.855 20.1142 16.1454 20.1142 20.4229 19.6577C22.1286 19.4756 23.4757 18.1284 23.6577 16.4228C23.6725 16.2845 23.6867 16.1463 23.7006 16.0081H4.2998Z" fill="url(#paint2_linear)"/>
<path d="M23.9959 9.29712L19.8445 5.14581C19.3792 5.41177 18.9692 5.55933 18.6604 5.64111C18.4867 5.68765 18.345 5.71298 18.243 5.72687C17.7749 5.24698 17.1212 4.94897 16.3976 4.94897C14.974 4.94897 13.8197 6.10315 13.8197 7.5271C13.8197 7.57852 13.821 7.62933 13.8244 7.67999C13.8313 7.80344 13.847 7.92474 13.8712 8.04269C13.2769 8.03384 11.3452 7.87515 9.50281 6.29587C9.50266 6.29587 9.50266 6.29572 9.50266 6.29572H9.5025L8.63367 5.42673C8.63367 5.42673 7.61438 7.20575 9.11295 8.55569C9.17871 8.62909 9.25104 8.70157 9.33023 8.77283C9.33649 8.77985 9.34305 8.78671 9.3493 8.79373C9.15262 8.78046 8.56104 8.72156 8.21863 8.47971C8.21863 8.47971 8.14981 9.56705 9.05573 10.3675L9.78723 11.1053C9.56445 11.1237 9.31802 11.1193 9.14667 11.0443C9.14667 11.0443 9.29834 11.6883 9.88458 12.2038L10.9094 13.2339C10.2946 13.592 9.21838 14.0402 7.80176 13.9257L14.0183 19.9999C16.1543 19.9993 18.2902 19.8852 20.4229 19.6575C22.1287 19.4755 23.4759 18.1283 23.6579 16.4227C23.9111 14.0499 24.0235 11.6732 23.9959 9.29712Z" fill="url(#paint3_linear)"/>
<path d="M20.1984 6.14709C19.7559 6.37857 19.0894 6.48553 18.8685 6.51636C18.8666 6.50568 18.8648 6.49545 18.863 6.48523C19.6142 6.0206 19.8441 5.14581 19.8441 5.14581C19.3789 5.41177 18.9689 5.55933 18.66 5.64111C18.4864 5.68765 18.3446 5.71283 18.2427 5.72687C17.7746 5.24683 17.1209 4.94897 16.3973 4.94897C14.9737 4.94897 13.8193 6.103 13.8193 7.5271C13.8193 7.57837 13.8207 7.62933 13.8241 7.67984C13.8309 7.80328 13.8466 7.92459 13.8709 8.04254C13.1818 8.03232 10.6945 7.82098 8.63333 5.42673C8.63333 5.42673 7.48557 7.42929 9.41519 8.79724C9.41519 8.79724 8.63333 8.77283 8.21829 8.47971C8.21829 8.47971 8.09622 10.4093 10.3187 11.0197C10.3187 11.0197 9.53726 11.2153 9.14618 11.0443C9.14618 11.0443 9.53711 12.705 11.491 12.8274C11.491 12.8274 10.0896 14.1104 7.80127 13.9257C8.92676 14.6383 10.2611 15.0508 11.6918 15.0508C15.7145 15.0508 18.9756 11.7898 18.9756 7.76712C18.9756 7.71692 18.9751 7.66672 18.9741 7.61652C18.9751 7.58676 18.9756 7.55716 18.9756 7.5271C18.9756 7.5062 18.9751 7.48529 18.9748 7.46439C19.7185 6.96878 20.1984 6.14709 20.1984 6.14709Z" fill="white"/>
</g>
<defs>
<filter id="filter0_d" x="0" y="0" width="28" height="28.0001" filterUnits="userSpaceOnUse" color-interpolation-filters="sRGB">
<feFlood flood-opacity="0" result="BackgroundImageFix"/>
<feColorMatrix in="SourceAlpha" type="matrix" values="0 0 0 0 0 0 0 0 0 0 0 0 0 0 0 0 0 0 127 0" result="hardAlpha"/>
<feOffset dy="4"/>
<feGaussianBlur stdDeviation="2"/>
<feComposite in2="hardAlpha" operator="out"/>
<feColorMatrix type="matrix" values="0 0 0 0 0 0 0 0 0 0 0 0 0 0 0 0 0 0 0.25 0"/>
<feBlend mode="normal" in2="BackgroundImageFix" result="effect1_dropShadow"/>
<feBlend mode="normal" in="SourceGraphic" in2="effect1_dropShadow" result="shape"/>
</filter>
<linearGradient id="paint0_linear" x1="10.6404" y1="2.81196" x2="15.699" y2="13.635" gradientUnits="userSpaceOnUse">
<stop stop-color="#00C3FF"/>
<stop offset="1" stop-color="#00B0ED"/>
</linearGradient>
<linearGradient id="paint1_linear" x1="18.2299" y1="12.2689" x2="-10.8275" y2="-3.31855" gradientUnits="userSpaceOnUse">
<stop stop-color="#00B0ED" stop-opacity="0"/>
<stop offset="1" stop-color="#00A2CE"/>
</linearGradient>
<linearGradient id="paint2_linear" x1="14.0001" y1="17.0853" x2="14.0001" y2="19.706" gradientUnits="userSpaceOnUse">
<stop stop-color="#00B0ED" stop-opacity="0"/>
<stop offset="1" stop-color="#00A2CE"/>
</linearGradient>
<linearGradient id="paint3_linear" x1="23.1182" y1="18.8309" x2="13.3476" y2="9.06029" gradientUnits="userSpaceOnUse">
<stop stop-color="#00B0ED" stop-opacity="0"/>
<stop offset="1" stop-color="#00A2CE"/>
</linearGradient>
</defs>
</svg>
